<svg xmlns="http://www.w3.org/2000/svg" viewBox="0 0 64 64"><defs><linearGradient id="g" x1="0" y1="0" x2="1" y2="1"><stop offset="0%" stop-color="#8b5cf6"/><stop offset="100%" stop-color="#c084fc"/></linearGradient></defs><rect width="64" height="64" rx="14" fill="url(#g)"/><path d="M20 44V20h10.5c5.2 0 8.8 2.6 8.8 6.9 0 2.9-1.7 5-4.4 5.7 3.4.6 5.4 2.9 5.4 6.3 0 4.4-3.6 7.1-9.1 7.1H20zm5.4-14.3h4.4c2.4 0 3.9-1.1 3.9-3s-1.5-3-3.9-3h-4.4v6zm0 10.5h5c2.7 0 4.2-1.1 4.2-3.2 0-2.1-1.6-3.3-4.4-3.3h-4.8v6.5z" fill="#fff"/></svg>
